<?xml version="1.0" encoding="iso-8859-1"?>
<!-- Generator: Adobe Illustrator 19.0.0, SVG Export Plug-In . SVG Version: 6.00 Build 0)  -->
<svg version="1.1" id="Capa_1" xmlns="http://www.w3.org/2000/svg" xmlns:xlink="http://www.w3.org/1999/xlink" x="0px" y="0px"
	 viewBox="0 0 511.999 511.999" style="enable-background:new 0 0 511.999 511.999;" xml:space="preserve">
<path style="fill:#FCE67A;" d="M301.768,97.645l14.716,26.907c0.464,0.849,1.163,1.547,2.012,2.012l26.907,14.716
	c3.51,1.92,3.51,6.961,0,8.881l-26.907,14.716c-0.849,0.464-1.547,1.163-2.012,2.012l-14.716,26.907c-1.92,3.51-6.961,3.51-8.881,0
	l-14.716-26.907c-0.464-0.849-1.163-1.547-2.012-2.012l-26.907-14.716c-3.51-1.92-3.51-6.961,0-8.881l26.907-14.716
	c0.849-0.464,1.547-1.163,2.012-2.012l14.716-26.907C294.807,94.134,299.848,94.134,301.768,97.645z"/>
<path style="fill:#EAC615;" d="M345.403,150.157l-26.905,14.718c-0.85,0.466-1.549,1.164-2.014,2.014l-14.718,26.905
	c-1.913,3.512-6.954,3.512-8.877,0L288,184.856c0.779-0.476,1.468-1.154,1.954-2.055l15.801-28.899
	c0.506-0.911,1.255-1.66,2.166-2.166l28.302-15.477l9.181,5.021C348.916,143.203,348.916,148.244,345.403,150.157z"/>
<path style="fill:#FCE67A;" d="M71.884,405.624L86.6,432.531c0.464,0.849,1.163,1.547,2.012,2.012l26.907,14.716
	c3.51,1.92,3.51,6.961,0,8.881l-26.907,14.716c-0.849,0.464-1.547,1.163-2.012,2.012l-14.716,26.907c-1.92,3.51-6.961,3.51-8.881,0
	l-14.716-26.907c-0.464-0.849-1.163-1.547-2.012-2.012L19.368,458.14c-3.51-1.92-3.51-6.961,0-8.881l26.907-14.716
	c0.849-0.464,1.547-1.163,2.012-2.012l14.716-26.907C64.923,402.114,69.964,402.114,71.884,405.624z"/>
<path style="fill:#EAC615;" d="M115.515,458.139L88.61,472.857c-0.85,0.466-1.549,1.164-2.014,2.014l-14.708,26.905
	c-1.923,3.513-6.964,3.513-8.887,0l-3.452-6.306l15.801-28.899c0.516-0.951,1.306-1.731,2.257-2.257l30.165-16.499
	c0.82-0.446,1.468-1.043,1.933-1.731l5.81,3.179C119.028,451.175,119.028,456.216,115.515,458.139z"/>
<path style="fill:#FFD800;" d="M494.136,367.22c-42.329,60.021-112.098,99.297-191.041,99.602
	c-129.256,0.499-235.306-104.829-235.65-234.086C67.164,127.064,136.696,37.604,232.515,7.873c5.235-1.624,9.826,3.911,7.258,8.753
	C222.86,48.52,213.094,84.774,212.586,123.26c-1.703,129.22,102.558,236.297,231.779,237.877
	c14.918,0.182,29.519-1.026,43.685-3.508C493.437,356.685,497.287,362.751,494.136,367.22z"/>
<path style="fill:#E8C207;" d="M494.131,367.22c-3.948,5.588-8.128,11.003-12.521,16.216c0,0,0,0-0.01,0
	c-11.165,1.346-22.563,1.964-34.132,1.822c-141.51-1.731-255.68-118.988-253.817-260.498c0.536-40.712,10.527-79.136,27.907-113.188
	c3.614-1.326,7.268-2.561,10.962-3.705c5.233-1.619,9.819,3.917,7.258,8.756c-16.914,31.895-26.682,68.153-27.189,106.639
	c-1.701,129.222,102.559,236.295,231.781,237.875c14.91,0.182,29.517-1.022,43.678-3.512
	C493.432,356.683,497.289,362.746,494.131,367.22z"/>
<path style="fill:#FCE67A;" d="M417.295,317.31l8.644,15.804c0.464,0.849,1.163,1.547,2.012,2.012l15.804,8.644
	c3.51,1.92,3.51,6.961,0,8.881l-15.804,8.644c-0.849,0.464-1.547,1.163-2.012,2.012l-8.644,15.804c-1.92,3.51-6.961,3.51-8.881,0
	l-8.644-15.804c-0.464-0.849-1.163-1.547-2.012-2.012l-15.804-8.644c-3.51-1.92-3.51-6.961,0-8.881l15.804-8.644
	c0.849-0.464,1.547-1.163,2.012-2.012l8.644-15.804C410.334,313.8,415.375,313.8,417.295,317.31z"/>
<path style="fill:#EAC615;" d="M443.752,352.654l-15.801,8.645c-0.85,0.455-1.549,1.154-2.014,2.004l-8.645,15.811
	c-1.913,3.503-6.954,3.503-8.877,0l-4.302-7.865c0.213-0.253,0.405-0.546,0.577-0.85l9.738-17.795
	c0.516-0.951,1.306-1.741,2.257-2.257l17.795-9.738c0.567-0.314,1.043-0.688,1.447-1.124l7.825,4.282
	C447.264,345.69,447.264,350.731,443.752,352.654z"/>
<path style="fill:#FCE67A;" d="M154.734,369.66l8.644,15.804c0.464,0.849,1.163,1.547,2.012,2.012l15.804,8.644
	c3.51,1.92,3.51,6.961,0,8.881l-15.804,8.644c-0.849,0.464-1.547,1.163-2.012,2.012l-8.644,15.804c-1.92,3.51-6.961,3.51-8.881,0
	l-8.644-15.804c-0.464-0.849-1.163-1.547-2.012-2.012l-15.804-8.644c-3.51-1.92-3.51-6.961,0-8.881l15.804-8.644
	c0.849-0.464,1.547-1.163,2.012-2.012l8.644-15.804C147.773,366.15,152.815,366.15,154.734,369.66z"/>
<path style="fill:#EAC615;" d="M181.199,404.997l-15.811,8.645c-0.85,0.466-1.549,1.164-2.014,2.014l-8.634,15.801
	c-1.923,3.512-6.964,3.512-8.887,0l-3.037-5.547c0.537-0.425,0.992-0.962,1.356-1.619l9.08-16.591
	c0.486-0.891,1.215-1.63,2.105-2.115l16.601-9.08c1.599-0.87,2.51-2.368,2.723-3.948l6.519,3.563
	C184.701,398.043,184.701,403.084,181.199,404.997z"/>
<path d="M500.709,356.334c-2.99-4.717-8.469-7.14-13.969-6.183c-11.131,1.951-22.501,3.046-33.915,3.325
	c0.744-1.625,1.154-3.414,1.154-5.265c0-4.627-2.522-8.881-6.581-11.101l-15.154-8.289l-8.288-15.153
	c-2.22-4.06-6.474-6.581-11.101-6.581s-8.881,2.522-11.101,6.581l-8.288,15.154l-15.154,8.288c-1.848,1.011-3.373,2.446-4.491,4.143
	c-14.614-5.021-28.738-11.515-42.097-19.471c-3.603-2.146-8.262-0.964-10.407,2.637c-2.146,3.602-0.964,8.262,2.638,10.407
	c16.573,9.871,34.237,17.663,52.559,23.284c0.56,0.445,1.157,0.851,1.798,1.201l15.153,8.288l8.289,15.155
	c2.22,4.06,6.474,6.581,11.101,6.581s8.881-2.522,11.101-6.581l7.944-14.525c4.114,0.272,8.239,0.449,12.373,0.499
	c13.963,0.18,27.947-0.851,41.621-3.04c-20.243,27.774-46.841,50.905-77.116,67.026c-32.311,17.205-68.865,26.374-105.712,26.517
	c-0.299,0.001-0.593,0.002-0.892,0.002c-46.921,0-91.768-14.298-129.63-40.847l12.294-6.724c4.06-2.22,6.581-6.474,6.581-11.101
	s-2.522-8.881-6.581-11.101l-15.153-8.288l-8.289-15.155c-2.22-4.06-6.474-6.581-11.101-6.581s-8.881,2.522-11.101,6.581
	l-8.189,14.973c-36.047-41.25-55.821-93.291-55.967-148.275c-0.084-31.507,6.157-62.018,18.552-90.685
	c1.664-3.848-0.107-8.317-3.956-9.981c-3.848-1.666-8.317,0.107-9.981,3.955c-13.227,30.593-19.888,63.145-19.798,96.751
	c0.153,57.599,20.473,112.17,57.592,155.778l-1.694,0.926c-4.06,2.22-6.581,6.474-6.581,11.101s2.522,8.881,6.581,11.101
	l15.154,8.289l8.288,15.153c2.22,4.06,6.474,6.581,11.101,6.581s8.881-2.522,11.101-6.581l2.37-4.333
	c40.411,28.366,88.292,43.646,138.407,43.646c0.315,0,0.637-0.001,0.951-0.002c39.306-0.151,78.309-9.936,112.79-28.298
	c33.389-17.779,62.583-43.549,84.426-74.521C503.553,367.04,503.698,361.049,500.709,356.334z M419.278,359.664l-6.423,11.744
	l-6.423-11.742c-1.163-2.128-2.902-3.868-5.031-5.032l-11.744-6.423l11.746-6.424c2.128-1.163,3.867-2.903,5.028-5.029l6.424-11.744
	l6.424,11.745c1.163,2.127,2.903,3.866,5.03,5.029l11.744,6.423l-11.744,6.423C422.182,355.796,420.442,357.535,419.278,359.664z
	 M143.87,412.012c-1.163-2.126-2.902-3.864-5.03-5.029l-11.744-6.423l11.746-6.424c2.126-1.162,3.865-2.901,5.029-5.03l6.423-11.744
	l6.424,11.745c1.163,2.127,2.902,3.866,5.03,5.03l11.744,6.423l-11.746,6.424c-2.126,1.163-3.865,2.901-5.029,5.029l-6.423,11.744
	L143.87,412.012z"/>
<path d="M105.552,103.606c3.43,2.407,8.166,1.581,10.575-1.852c28.157-40.115,69.005-70.399,115.317-85.571
	c-16.824,32.9-25.96,69.808-26.45,106.978c-0.909,69.013,28.016,135.45,79.359,182.276c1.456,1.329,3.287,1.983,5.114,1.983
	c2.06,0,4.114-0.834,5.611-2.476c2.825-3.098,2.604-7.899-0.494-10.724c-48.14-43.906-75.261-106.181-74.408-170.859
	c0.48-36.458,9.33-71.173,26.302-103.178c2.616-4.933,2.002-10.899-1.564-15.201c-3.567-4.303-9.319-6.016-14.651-4.359
	c-50.87,15.784-95.818,48.603-126.565,92.409C101.291,96.463,102.12,101.197,105.552,103.606z"/>
<path d="M239.028,145.72c0,4.627,2.522,8.881,6.581,11.101l26.257,14.361l14.36,26.256c2.22,4.06,6.474,6.581,11.101,6.581
	s8.881-2.522,11.101-6.581l14.36-26.256l26.257-14.361c4.06-2.22,6.582-6.474,6.582-11.101s-2.522-8.881-6.582-11.101l-26.256-14.36
	l-14.36-26.258c-2.22-4.06-6.474-6.581-11.101-6.581s-8.881,2.522-11.101,6.581l-14.361,26.258l-26.257,14.36
	C241.55,136.839,239.028,141.093,239.028,145.72z M279.803,133.223c2.126-1.162,3.865-2.901,5.029-5.03l12.496-22.847l12.496,22.848
	c1.163,2.127,2.902,3.866,5.03,5.03l22.847,12.496l-22.849,12.497c-2.126,1.163-3.865,2.901-5.029,5.029l-12.496,22.847
	l-12.496-22.848c-1.163-2.126-2.902-3.864-5.03-5.029l-22.847-12.496L279.803,133.223z"/>
<path d="M119.161,442.598l-26.257-14.361l-14.36-26.256c-2.22-4.06-6.474-6.582-11.101-6.582s-8.881,2.522-11.101,6.582
	l-14.36,26.256l-26.258,14.362c-4.059,2.221-6.581,6.475-6.58,11.102c0,4.627,2.522,8.88,6.581,11.1l26.257,14.361l14.36,26.256
	c2.22,4.06,6.474,6.581,11.101,6.581s8.881-2.522,11.101-6.581l14.36-26.256l26.257-14.361c4.059-2.22,6.581-6.473,6.582-11.1
	C125.744,449.074,123.222,444.82,119.161,442.598z M84.97,466.196c-2.127,1.162-3.867,2.901-5.031,5.03l-12.496,22.847
	l-12.496-22.848c-1.163-2.126-2.902-3.864-5.03-5.029L27.07,453.699l22.844-12.493c2.128-1.162,3.869-2.902,5.034-5.033
	l12.496-22.847l12.496,22.848c1.165,2.13,2.907,3.87,5.03,5.029l22.848,12.497L84.97,466.196z"/>
<g>
</g>
<g>
</g>
<g>
</g>
<g>
</g>
<g>
</g>
<g>
</g>
<g>
</g>
<g>
</g>
<g>
</g>
<g>
</g>
<g>
</g>
<g>
</g>
<g>
</g>
<g>
</g>
<g>
</g>
</svg>
