<?xml version="1.0" encoding="iso-8859-1"?>
<!-- Generator: Adobe Illustrator 19.0.0, SVG Export Plug-In . SVG Version: 6.00 Build 0)  -->
<svg version="1.1" id="Capa_1" xmlns="http://www.w3.org/2000/svg" xmlns:xlink="http://www.w3.org/1999/xlink" x="0px" y="0px"
	 viewBox="0 0 463.881 463.881" style="enable-background:new 0 0 463.881 463.881;" xml:space="preserve">
<g>
	<path style="fill:#ED664C;" d="M453.881,119.041v44.1c0,8.9-7.2,16.1-16,16.1h-4h-24.1v-76.2h28.1
		C446.681,103.041,453.881,110.141,453.881,119.041z"/>
	<path style="fill:#ED664C;" d="M434.081,290.541c0.1,15.7-6.5,30.7-18,41.4l-20.8,19.3l-3.2-3.5l-9.6-18.1
		c-16.9-32.1-4.4-71.8,27.7-88.6l23.7-12.5h0.2L434.081,290.541z"/>
</g>
<g>
	<path style="fill:#FDC75B;" d="M433.781,180.441l0.2,48.1h-0.2l-23.7,12.5c-32.1,16.9-44.5,56.5-27.7,88.6l9.6,18.1l3.2,3.5
		l-77.8,71.9c-25.3,25.3-66.6,24.4-91.1-2c-22.9-24.9-20.5-64.2,3.2-88.3l62-61.8c10.6-10.5,16.5-24.9,16.5-39.8v-50.8v-1.2h21.3
		h40.1h40.1h24.1v1.2H433.781z"/>
	<rect x="369.581" y="103.041" style="fill:#FDC75B;" width="40.1" height="76.2"/>
</g>
<rect x="329.481" y="103.041" style="fill:#ED664C;" width="40.1" height="76.2"/>
<path style="fill:#FDC75B;" d="M329.481,103.041v76.2h-21.3h-6.8c-8.8,0-16-7.2-16-16.1v-44.1c0-8.8,7.2-16,16-16L329.481,103.041
	L329.481,103.041z"/>
<g>
	<path style="fill:#ED664C;" d="M253.281,38.841v44.1c0,8.8-7.2,16-16.1,16h-4h-24.1v-76.2h28.1
		C246.081,22.741,253.281,29.941,253.281,38.841z"/>
	<path style="fill:#ED664C;" d="M233.581,210.341c0.1,15.7-6.5,30.7-18.1,41.4l-20.8,19.2l-3.2-3.5l-9.6-18.1
		c-16.9-32.1-4.4-71.8,27.6-88.7l23.7-12.4h0.2L233.581,210.341z"/>
</g>
<g>
	<path style="fill:#FDC75B;" d="M233.281,100.141l0.2,48.2h-0.2l-23.7,12.4c-32.1,16.9-44.5,56.6-27.6,88.7l9.6,18.1l3.2,3.5
		l-77.9,71.8c-25.2,25.3-66.6,24.5-91-2c-22.9-24.9-20.5-64.2,3.2-88.3l62.1-61.8c10.6-10.5,16.5-24.9,16.5-39.8v-50.9v-1.2h21.2
		h40.1h40.2h24.1V100.141z"/>
	<rect x="168.981" y="22.741" style="fill:#FDC75B;" width="40.2" height="76.2"/>
</g>
<rect x="128.881" y="22.741" style="fill:#ED664C;" width="40.1" height="76.2"/>
<path style="fill:#FDC75B;" d="M128.881,22.741v76.2h-21.3h-6.7c-8.8,0-16.1-7.2-16.1-16v-44.1c0-8.8,7.2-16.1,16.1-16.1H128.881z"
	/>
<path d="M243.581,210.341l-0.2-62l-0.3-40c11.5-2.7,19.8-13,19.8-25.3v-44.2c0-14.4-11.3-26.5-25.7-26.5h-136.3
	c-14.4,0-26,12.1-26,26.5v44.1c0,13.3,10,24.2,23,25.8v42.3c0,12.2-5.1,24.1-13.7,32.7l-62.1,61.8l-0.1,0.1
	c-13.3,13.5-21.1,31.4-21.9,50.4c-0.9,19.4,5.7,37.8,18.5,51.6c13.7,14.8,32.3,23.2,52.5,23.6c0.5,0,1,0,1.5,0
	c19.4,0,37.6-7.5,51.4-21.2l98.5-91C235.881,246.541,243.581,228.741,243.581,210.341z M242.881,38.841v44.1c0,3.3-2.3,6.4-5.7,6.4
	h-18.3v-57h18.3C240.581,32.341,242.881,35.441,242.881,38.841z M138.881,89.341v-57h20v57H138.881z M178.881,32.341h20v57h-20
	V32.341z M94.881,82.941v-44.1c0-3.3,2.6-6.5,6-6.5h18v57h-18C97.481,89.341,94.881,86.241,94.881,82.941z M110.081,335.541
	c-0.1,0.1-0.2,0.2-0.3,0.3c-10.2,10.3-23.9,15.8-38.4,15.5c-14.6-0.3-28.2-6.4-38.2-17.2c-18.7-20.3-17.4-53.7,2.9-74.4l62.2-61.7
	c12.4-12.3,19.6-29.4,19.6-46.9v-41.8h105.4l0.1,33.1l-18.5,9.6c-37,19.4-51.2,65.2-31.8,102.2l8.3,15.5L110.081,335.541z
	 M208.681,244.341l-12.2,11.2l-5.8-10.9c-14.3-27.2-3.8-60.9,23.4-75.2l9.3-4.9l0.1,45.6
	C223.581,223.241,218.181,235.641,208.681,244.341z"/>
<path d="M437.781,93.341h-136.4c-14.3,0-25.5,11.3-25.5,25.7v44.1c0,13.3,9,24.3,22,25.9v42.2c0,12.4-4.7,24.1-13.4,32.8l-62,61.8
	c-13.3,13.5-21.1,31.4-21.9,50.4c-0.9,19.4,5.7,37.8,18.5,51.7c13.7,14.8,32.4,23.2,52.6,23.6c0.5,0,1,0,1.4,0
	c19.4,0,37.6-7.5,51.4-21.2l77.7-71.8l20.8-19.3c13.5-12.6,21.3-30.3,21.2-48.7l-0.2-62l-0.1-40c11.5-2.7,20-13.1,20-25.4v-44.1
	C463.881,104.641,452.181,93.341,437.781,93.341z M379.881,169.341v-56h20v56H379.881z M339.881,169.341v-56h20v56H339.881z
	 M295.881,163.141v-44.1c0-3.3,2.2-5.7,5.5-5.7h18.5v56h-18.5C298.081,169.341,295.881,166.541,295.881,163.141z M310.681,415.741
	c-0.1,0.1-0.2,0.2-0.3,0.3c-10.3,10.3-23.9,15.8-38.4,15.5c-14.7-0.3-28.2-6.4-38.2-17.2c-18.7-20.4-17.4-53.8,2.9-74.4l61.8-61.8
	c12.6-12.5,19.3-29.1,19.3-46.9v-41.9h105.9l0.1,33.1l-18.4,9.7c-37,19.4-51.3,65.2-31.9,102.2l8.3,15.6L310.681,415.741z
	 M409.281,324.641l-12.2,11.3l-5.8-10.9c-14.3-27.1-3.7-60.8,23.5-75.1l9.2-4.8l0.1,45.6
	C424.181,303.441,418.781,315.841,409.281,324.641z M443.881,163.141c0,3.3-2.7,6.2-6.1,6.2h-17.9v-56h17.9c3.3,0,6.1,2.4,6.1,5.7
	V163.141z"/>
<g>
</g>
<g>
</g>
<g>
</g>
<g>
</g>
<g>
</g>
<g>
</g>
<g>
</g>
<g>
</g>
<g>
</g>
<g>
</g>
<g>
</g>
<g>
</g>
<g>
</g>
<g>
</g>
<g>
</g>
</svg>
