<?xml version="1.0" encoding="iso-8859-1"?>
<!-- Generator: Adobe Illustrator 19.0.0, SVG Export Plug-In . SVG Version: 6.00 Build 0)  -->
<svg version="1.1" id="Capa_1" xmlns="http://www.w3.org/2000/svg" xmlns:xlink="http://www.w3.org/1999/xlink" x="0px" y="0px"
	 viewBox="0 0 511.999 511.999" style="enable-background:new 0 0 511.999 511.999;" xml:space="preserve">
<path style="fill:#5DADE0;" d="M419.091,247.074L419.091,247.074c-9.64,0-17.455-7.815-17.455-17.455v-84h-71.533H220.158H36.182
	C21.722,145.62,10,157.342,10,171.802v145.863h24.271c5.875,0,10.638,4.763,10.638,10.638v39.863h30.997
	c-0.163-1.433-0.255-2.887-0.255-4.364c0-21.087,17.094-38.182,38.182-38.182c21.087,0,38.182,17.095,38.182,38.182
	c0,1.477-0.093,2.931-0.256,4.364h215.457c-0.163-1.433-0.256-2.887-0.256-4.364c0-21.087,17.095-38.182,38.182-38.182
	s38.182,17.095,38.182,38.182c0,1.477-0.092,2.931-0.256,4.364h27.602V335.13c0-6.185,5.014-11.198,11.198-11.198H502v-35.401
	l-41.152-28.432C448.574,251.616,434.009,247.074,419.091,247.074z M122.521,230.646c0,4.253-3.448,7.701-7.701,7.701H52.61
	c-4.253,0-7.701-3.448-7.701-7.701v-39.144c0-4.253,3.448-7.701,7.701-7.701h62.211c4.253,0,7.701,3.448,7.701,7.701
	L122.521,230.646L122.521,230.646z M245.715,230.646c0,4.253-3.448,7.701-7.701,7.701h-62.211c-4.253,0-7.701-3.448-7.701-7.701
	v-39.144c0-4.253,3.448-7.701,7.701-7.701h62.211c4.253,0,7.701,3.448,7.701,7.701V230.646z M368.909,230.646
	c0,4.253-3.448,7.701-7.701,7.701h-62.211c-4.253,0-7.701-3.448-7.701-7.701v-39.144c0-4.253,3.448-7.701,7.701-7.701h62.211
	c4.253,0,7.701,3.448,7.701,7.701V230.646z"/>
<g>
	<path style="fill:#FFC766;" d="M405.142,325.62c-21.087,0-38.182,17.095-38.182,38.182c0,1.477,0.093,2.931,0.256,4.364
		c2.167,19.031,18.316,33.818,37.926,33.818c19.611,0,35.76-14.787,37.926-33.818c0.163-1.433,0.256-2.887,0.256-4.364
		C443.324,342.714,426.229,325.62,405.142,325.62z"/>
	<path style="fill:#FFC766;" d="M113.833,325.62c-21.087,0-38.182,17.095-38.182,38.182c0,1.477,0.092,2.931,0.255,4.364
		c2.167,19.031,18.316,33.818,37.926,33.818c19.611,0,35.76-14.787,37.926-33.818c0.163-1.433,0.256-2.887,0.256-4.364
		C152.014,342.714,134.92,325.62,113.833,325.62z"/>
</g>
<g>
	<path style="fill:#ECEFF0;" d="M114.821,183.802H52.61c-4.253,0-7.701,3.448-7.701,7.701v39.144c0,4.253,3.448,7.701,7.701,7.701
		h62.211c4.253,0,7.701-3.448,7.701-7.701v-39.144C122.521,187.249,119.073,183.802,114.821,183.802z"/>
	<path style="fill:#ECEFF0;" d="M238.014,183.802h-62.211c-4.253,0-7.701,3.448-7.701,7.701v39.144c0,4.253,3.448,7.701,7.701,7.701
		h62.211c4.253,0,7.701-3.448,7.701-7.701v-39.144C245.715,187.249,242.268,183.802,238.014,183.802z"/>
</g>
<path style="fill:#EC6575;" d="M470.67,335.129v33.036h21.021c5.694,0,10.31-4.616,10.31-10.31V323.93h-20.132
	C475.683,323.93,470.67,328.944,470.67,335.129z"/>
<g>
	<path style="fill:#ECEFF0;" d="M361.208,183.802h-62.211c-4.253,0-7.701,3.448-7.701,7.701v39.144c0,4.253,3.448,7.701,7.701,7.701
		h62.211c4.253,0,7.701-3.448,7.701-7.701v-39.144C368.909,187.249,365.461,183.802,361.208,183.802z"/>
	<path style="fill:#ECEFF0;" d="M418,145.62h-16.364v84c0,9.64,7.815,17.455,17.455,17.455l0,0c14.918,0,29.483,4.542,41.757,13.022
		L502,288.529V229.62C502,183.228,464.392,145.62,418,145.62z"/>
</g>
<path style="fill:#EC6575;" d="M34.271,317.664H10v38.016c0,6.896,5.59,12.486,12.486,12.486H44.91v-39.863
	C44.909,322.427,40.146,317.664,34.271,317.664z"/>
<path style="fill:#FFC766;" d="M330.103,126c0-8.828-7.156-15.984-15.984-15.984h-77.978c-8.828,0-15.984,7.156-15.984,15.984
	v19.619h109.945V126H330.103z"/>
<path d="M114.82,173.802H52.609c-9.76,0-17.7,7.94-17.7,17.701v39.144c0,9.76,7.94,17.701,17.7,17.701h62.211
	c9.761,0,17.701-7.94,17.701-17.701v-39.144C132.521,181.742,124.581,173.802,114.82,173.802z M112.521,228.347H54.909v-34.545
	h57.612C112.521,193.802,112.521,228.347,112.521,228.347z"/>
<path d="M238.015,173.802h-62.211c-9.761,0-17.701,7.94-17.701,17.701v39.144c0,9.76,7.94,17.701,17.701,17.701h62.211
	c9.76,0,17.7-7.94,17.7-17.701v-39.144C255.715,181.742,247.774,173.802,238.015,173.802z M235.715,228.347h-57.612v-34.545h57.612
	V228.347z"/>
<path d="M378.909,230.646v-39.144c0-9.76-7.94-17.701-17.701-17.701h-62.21c-9.761,0-17.701,7.94-17.701,17.701v39.144
	c0,9.76,7.94,17.701,17.701,17.701h62.21C370.969,248.347,378.909,240.407,378.909,230.646z M358.909,228.347h-57.612v-34.545
	h57.612V228.347z"/>
<path d="M418,135.62h-16.363h-61.534V126c0-14.328-11.656-25.984-25.983-25.984h-77.978c-14.328,0-25.984,11.656-25.984,25.984
	v9.619H36.182C16.231,135.62,0,151.851,0,171.802v145.862v38.016c0,12.398,10.087,22.485,22.485,22.485h22.424h22.928
	c6.126,19.574,24.427,33.818,45.995,33.818c21.567,0,39.869-14.244,45.994-33.818h199.32c6.126,19.574,24.427,33.818,45.994,33.818
	s39.869-14.244,45.994-33.818h19.534h21.021c11.199,0,20.31-9.111,20.31-20.31V323.93v-35.401V229.62
	C512,177.788,469.832,135.62,418,135.62z M230.157,126c0-3.299,2.685-5.984,5.984-5.984h77.978c3.299,0,5.983,2.685,5.983,5.984
	v9.619h-89.945L230.157,126L230.157,126z M34.909,358.165H22.485c-1.37,0-2.485-1.115-2.485-2.485v-28.016h14.271
	c0.352,0,0.638,0.286,0.638,0.638V358.165z M138.066,378.165c-4.918,8.266-13.938,13.818-24.233,13.818
	c-10.296,0-19.316-5.553-24.234-13.818c-2.504-4.209-3.948-9.12-3.948-14.363c0-1.93,0.196-3.815,0.567-5.637
	c2.619-12.848,14.005-22.545,27.615-22.545c13.609,0,24.996,9.698,27.615,22.545c0.371,1.822,0.567,3.707,0.567,5.637
	C142.015,369.045,140.571,373.956,138.066,378.165z M429.375,378.165c-4.918,8.266-13.938,13.818-24.233,13.818
	s-19.316-5.553-24.233-13.818c-2.504-4.209-3.948-9.12-3.948-14.363c0-1.93,0.196-3.815,0.567-5.637
	c2.619-12.848,14.005-22.545,27.615-22.545s24.996,9.698,27.615,22.545c0.371,1.822,0.567,3.707,0.567,5.637
	C433.323,369.045,431.879,373.956,429.375,378.165z M492,357.855c0,0.171-0.139,0.31-0.31,0.31h-11.02v-23.037
	c0-0.661,0.537-1.198,1.198-1.198H492V357.855z M481.868,313.93c-11.688,0-21.198,9.509-21.198,21.198v23.037h-7.687
	c-2.802-23.92-23.181-42.545-47.841-42.545s-45.04,18.625-47.841,42.545H161.674c-2.802-23.92-23.181-42.545-47.841-42.545
	c-24.661,0-45.041,18.625-47.842,42.545H54.909v-29.863c0-11.38-9.258-20.638-20.638-20.638H20v-21.408h310.103
	c5.522,0,10-4.477,10-10s-4.478-10-10-10H20v-94.454c0-8.923,7.259-16.182,16.182-16.182h183.976h109.945h61.534v74
	c0,15.139,12.315,27.455,27.454,27.455c12.947,0,25.421,3.89,36.072,11.25L492,293.775v20.155H481.868z M492,269.465l-25.468-17.596
	c-14.008-9.679-30.413-14.795-47.441-14.795c-4.11,0-7.454-3.344-7.454-7.455v-74H418c40.804,0,74,33.196,74,74V269.465z"/>
<path d="M379.34,272.43c-0.25-0.6-0.56-1.18-0.92-1.73c-0.37-0.54-0.79-1.05-1.25-1.52c-0.46-0.46-0.97-0.87-1.521-1.24
	c-0.54-0.36-1.119-0.67-1.72-0.92c-0.61-0.25-1.24-0.44-1.87-0.57c-3.25-0.65-6.71,0.41-9.029,2.73
	c-0.461,0.47-0.881,0.98-1.24,1.52c-0.36,0.55-0.67,1.13-0.92,1.73s-0.44,1.23-0.57,1.87c-0.13,0.65-0.2,1.3-0.2,1.96
	c0,0.65,0.07,1.31,0.2,1.95s0.32,1.27,0.57,1.87c0.25,0.61,0.56,1.19,0.92,1.73c0.359,0.55,0.779,1.06,1.24,1.52
	c1.859,1.86,4.439,2.93,7.069,2.93c0.65,0,1.311-0.07,1.96-0.2c0.63-0.13,1.26-0.32,1.87-0.57c0.601-0.25,1.18-0.56,1.72-0.92
	c0.551-0.36,1.061-0.78,1.521-1.24s0.88-0.97,1.25-1.52c0.36-0.54,0.67-1.12,0.92-1.73c0.24-0.6,0.44-1.23,0.56-1.87
	c0.131-0.64,0.2-1.3,0.2-1.95c0-0.66-0.069-1.31-0.2-1.96C379.78,273.66,379.58,273.03,379.34,272.43z"/>
<path d="M321.5,323H190c-5.522,0-10,4.477-10,10s4.478,10,10,10h131.5c5.522,0,10-4.477,10-10S327.022,323,321.5,323z"/>
<g>
</g>
<g>
</g>
<g>
</g>
<g>
</g>
<g>
</g>
<g>
</g>
<g>
</g>
<g>
</g>
<g>
</g>
<g>
</g>
<g>
</g>
<g>
</g>
<g>
</g>
<g>
</g>
<g>
</g>
</svg>
