<?xml version="1.0" encoding="iso-8859-1"?>
<!-- Generator: Adobe Illustrator 19.0.0, SVG Export Plug-In . SVG Version: 6.00 Build 0)  -->
<svg version="1.1" id="Layer_1" xmlns="http://www.w3.org/2000/svg" xmlns:xlink="http://www.w3.org/1999/xlink" x="0px" y="0px"
	 viewBox="0 0 512 512" style="enable-background:new 0 0 512 512;" xml:space="preserve">
<g>
	<rect x="342.528" y="201.113" style="fill:#F95428;" width="99.309" height="29.374"/>
	<rect x="206.344" y="201.113" style="fill:#F95428;" width="99.309" height="29.374"/>
	<rect x="70.16" y="201.113" style="fill:#F95428;" width="99.309" height="29.374"/>
</g>
<g>
	<rect x="342.528" y="230.487" style="fill:#96D0EA;" width="99.309" height="40.37"/>
	<rect x="70.16" y="230.487" style="fill:#96D0EA;" width="99.309" height="40.37"/>
	<rect x="206.344" y="230.487" style="fill:#96D0EA;" width="99.309" height="40.37"/>
</g>
<g>
	<path style="fill:#E6E6E6;" d="M381.821,381.971c0-18.521,15.014-33.523,33.535-33.523c16.821,0,30.765,12.399,33.154,28.566
		c0.25,1.617,0.369,3.269,0.369,4.957c0,18.509-15.014,33.523-33.523,33.523C396.835,415.494,381.821,400.48,381.821,381.971z"/>
	<path style="fill:#E6E6E6;" d="M381.821,381.971c0,18.509-15.002,33.523-33.523,33.523c-18.509,0-33.523-15.014-33.523-33.523
		c0-1.688,0.119-3.34,0.368-4.957c2.389-16.167,16.333-28.566,33.154-28.566C366.819,348.448,381.821,363.45,381.821,381.971z"/>
	<path style="fill:#E6E6E6;" d="M130.185,381.971c0-18.521,15.002-33.523,33.523-33.523c16.833,0,30.765,12.399,33.154,28.566
		c0.25,1.617,0.369,3.269,0.369,4.957c0,18.509-15.002,33.523-33.523,33.523S130.185,400.48,130.185,381.971z"/>
	<path style="fill:#E6E6E6;" d="M130.185,381.971c0,18.509-15.014,33.523-33.523,33.523c-18.521,0-33.535-15.014-33.535-33.523
		c0-1.688,0.119-3.34,0.369-4.957c2.389-16.167,16.333-28.566,33.166-28.566C115.171,348.448,130.185,363.45,130.185,381.971z"/>
	<path style="fill:#E6E6E6;" d="M498.497,132.44v37.422h-19.65h-445.7H13.509V132.44c0-12.815,10.39-23.193,23.204-23.193h76.639
		h142.651h142.65h76.639C488.107,109.247,498.497,119.625,498.497,132.44z"/>
</g>
<path style="fill:#CCCCCC;" d="M85.454,109.246H36.715c-12.815,0-23.204,10.378-23.204,23.193v37.422h19.638h29.101v-37.422
	C62.249,119.624,72.638,109.246,85.454,109.246z"/>
<path style="fill:#2BA5F7;" d="M33.148,169.862v207.152h30.349c2.389-16.167,16.333-28.566,33.166-28.566
	c18.509,0,33.523,15.002,33.523,33.523c0-18.521,15.002-33.523,33.523-33.523c16.833,0,30.765,12.399,33.154,28.566h118.281
	c2.389-16.167,16.333-28.566,33.154-28.566c18.521,0,33.523,15.002,33.523,33.523c0-18.521,15.014-33.523,33.535-33.523
	c16.821,0,30.765,12.399,33.154,28.566h30.337V169.862H33.148z M169.474,270.858H70.165v-69.744h99.309V270.858z M305.658,270.858
	H206.35v-69.744h99.309V270.858z M441.842,270.858h-99.309v-69.744h99.309V270.858z"/>
<rect x="33.148" y="169.861" style="fill:#2197D8;" width="445.7" height="18.604"/>
<g>
	<path style="fill:#FFFFFF;" d="M471.762,154.681c-4.925,0-8.916-3.992-8.916-8.916v-13.671c0-4.924,3.991-8.916,8.916-8.916
		s8.916,3.992,8.916,8.916v13.671C480.678,150.689,476.687,154.681,471.762,154.681z"/>
	<circle style="fill:#FFFFFF;" cx="418.858" cy="249.78" r="8.916"/>
	<circle style="fill:#FFFFFF;" cx="284.528" cy="249.78" r="8.916"/>
	<circle style="fill:#FFFFFF;" cx="146.633" cy="249.78" r="8.916"/>
</g>
<g>
	<path style="fill:#333333;" d="M503.084,316.227c-4.925,0-8.916,3.992-8.916,8.916v8.916h-6.404V178.783h10.733
		c4.925,0,8.916-3.992,8.916-8.916v-37.423c0-17.709-14.406-32.115-32.117-32.115h-67.728v-3.823c0-4.924-3.991-8.916-8.916-8.916
		s-8.916,3.992-8.916,8.916v3.823H264.919v-3.823c0-4.924-3.991-8.916-8.916-8.916c-4.925,0-8.916,3.992-8.916,8.916v3.823H122.268
		v-3.823c0-4.924-3.991-8.916-8.916-8.916c-4.925,0-8.916,3.992-8.916,8.916v3.823H36.711c-17.708,0-32.115,14.407-32.115,32.115
		v37.423c0,4.924,3.991,8.916,8.916,8.916h10.724v155.275h-6.404v-8.916c0-4.924-3.991-8.916-8.916-8.916S0,320.219,0,325.143
		v35.663c0,4.924,3.991,8.916,8.916,8.916s8.916-3.992,8.916-8.916v-8.916h6.404v25.125c0,4.924,3.991,8.916,8.916,8.916h21.258
		c2.005,21.55,20.184,38.479,42.25,38.479c13.621,0,25.754-6.457,33.525-16.462c7.771,10.006,19.905,16.462,33.525,16.462
		c22.066,0,40.244-16.929,42.25-38.479h100.093c2.005,21.55,20.184,38.479,42.248,38.479c13.621,0,25.754-6.457,33.525-16.462
		c7.771,10.006,19.904,16.462,33.525,16.462c22.066,0,40.244-16.929,42.25-38.479h21.249c4.925,0,8.916-3.992,8.916-8.916V351.89
		h6.404v8.916c0,4.924,3.991,8.916,8.916,8.916s8.916-3.992,8.916-8.916v-35.663C512,320.219,508.009,316.227,503.084,316.227z
		 M22.427,132.443c0-7.877,6.409-14.284,14.284-14.284h438.587c7.877,0,14.285,6.407,14.285,14.284v28.508H22.427V132.443z
		 M96.659,406.578c-13.57,0-24.61-11.04-24.61-24.61s11.04-24.61,24.61-24.61c10.423,0,19.332,6.524,22.913,15.694H96.659
		c-4.925,0-8.916,3.992-8.916,8.916c0,4.924,3.991,8.916,8.916,8.916h22.913C115.989,400.054,107.081,406.578,96.659,406.578z
		 M163.709,406.578c-10.423,0-19.332-6.524-22.913-15.694h22.913c4.925,0,8.916-3.992,8.916-8.916c0-4.924-3.991-8.916-8.916-8.916
		h-22.913c3.582-9.17,12.49-15.694,22.913-15.694c13.57,0,24.61,11.04,24.61,24.61S177.279,406.578,163.709,406.578z M348.3,406.578
		c-13.57,0-24.608-11.04-24.608-24.61s11.039-24.61,24.608-24.61c10.423,0,19.332,6.524,22.913,15.694H348.3
		c-4.925,0-8.916,3.992-8.916,8.916c0,4.924,3.991,8.916,8.916,8.916h22.913C367.632,400.054,358.723,406.578,348.3,406.578z
		 M415.351,406.578c-10.423,0-19.332-6.524-22.913-15.694h22.913c4.925,0,8.916-3.992,8.916-8.916c0-4.924-3.991-8.916-8.916-8.916
		h-22.913c3.582-9.17,12.49-15.694,22.913-15.694c13.57,0,24.61,11.04,24.61,24.61S428.92,406.578,415.351,406.578z M455.453,368.1
		c-5.761-16.609-21.556-28.572-40.101-28.572c-13.621,0-25.754,6.457-33.525,16.462c-7.771-10.006-19.904-16.462-33.525-16.462
		c-18.545,0-34.34,11.962-40.1,28.572H203.812c-5.761-16.609-21.556-28.572-40.101-28.572c-13.621,0-25.754,6.457-33.525,16.462
		c-7.771-10.006-19.905-16.462-33.525-16.462c-18.546,0-34.341,11.962-40.101,28.572H42.068V178.783h427.868V368.1L455.453,368.1
		L455.453,368.1z"/>
	<path style="fill:#333333;" d="M70.163,279.772h99.317c4.925,0,8.916-3.992,8.916-8.916v-69.741c0-4.924-3.991-8.916-8.916-8.916
		H70.163c-4.925,0-8.916,3.992-8.916,8.916v69.741C61.247,275.78,65.239,279.772,70.163,279.772z M79.078,261.94v-22.535h81.486
		v22.535H79.078z M160.564,210.031v11.543H79.078v-11.543H160.564z"/>
	<path style="fill:#333333;" d="M206.346,279.772h99.317c4.925,0,8.916-3.992,8.916-8.916v-69.741c0-4.924-3.991-8.916-8.916-8.916
		h-99.317c-4.925,0-8.916,3.992-8.916,8.916v69.741C197.431,275.78,201.421,279.772,206.346,279.772z M215.262,261.94v-22.535
		h81.486v22.535H215.262z M296.748,210.031v11.543h-81.486v-11.543H296.748z"/>
	<path style="fill:#333333;" d="M441.847,192.2H342.53c-4.925,0-8.916,3.992-8.916,8.916v69.741c0,4.924,3.991,8.916,8.916,8.916
		h99.317c4.925,0,8.916-3.992,8.916-8.916v-69.741C450.763,196.191,446.772,192.2,441.847,192.2z M432.931,210.031v11.543h-81.486
		v-11.543H432.931z M351.447,261.94v-22.535h81.486v22.535H351.447z"/>
	<path style="fill:#333333;" d="M441.847,298.396H70.163c-4.925,0-8.916,3.992-8.916,8.916s3.991,8.916,8.916,8.916h371.684
		c4.925,0,8.916-3.992,8.916-8.916C450.763,302.388,446.772,298.396,441.847,298.396z"/>
</g>
<g>
</g>
<g>
</g>
<g>
</g>
<g>
</g>
<g>
</g>
<g>
</g>
<g>
</g>
<g>
</g>
<g>
</g>
<g>
</g>
<g>
</g>
<g>
</g>
<g>
</g>
<g>
</g>
<g>
</g>
</svg>
