<?xml version="1.0" encoding="iso-8859-1"?>
<!-- Generator: Adobe Illustrator 19.0.0, SVG Export Plug-In . SVG Version: 6.00 Build 0)  -->
<svg version="1.1" id="Capa_1" xmlns="http://www.w3.org/2000/svg" xmlns:xlink="http://www.w3.org/1999/xlink" x="0px" y="0px"
	 viewBox="0 0 512 512" style="enable-background:new 0 0 512 512;" xml:space="preserve">
<path style="fill:#FFC66C;" d="M492,319.093v-160c0-26.51-21.49-48-48-48H68c-26.51,0-48,21.49-48,48v160H492z"/>
<path style="fill:#4DBAF6;" d="M460.964,367.093H478c13.255,0,24-10.745,24-24l0,0c0-13.255-10.745-24-24-24H34
	c-13.255,0-24,10.745-24,24l0,0c0,13.255,10.745,24,24,24h81H460.964z"/>
<g>
	<path style="fill:#ADE5FF;" d="M492,166.911h-33.75c-7.87,0-14.25,6.38-14.25,14.25v75.5c0,7.87,6.38,14.25,14.25,14.25h33.363
		L492,166.911z"/>
	<rect x="156" y="166.911" style="fill:#ADE5FF;" width="56" height="64"/>
</g>
<g>
	<circle style="fill:#898998;" cx="157.15" cy="366.911" r="34"/>
	<circle style="fill:#898998;" cx="419.77" cy="366.911" r="34"/>
</g>
<g>
	<rect x="60" y="166.911" style="fill:#ADE5FF;" width="56" height="64"/>
	<rect x="348" y="166.911" style="fill:#ADE5FF;" width="56" height="64"/>
	<rect x="252" y="166.911" style="fill:#ADE5FF;" width="56" height="64"/>
</g>
<path d="M376,121.092c2.63,0,5.21-1.07,7.07-2.93c1.86-1.86,2.93-4.44,2.93-7.07s-1.07-5.21-2.93-7.07s-4.44-2.93-7.07-2.93
	s-5.21,1.07-7.07,2.93c-1.86,1.86-2.93,4.44-2.93,7.07s1.07,5.21,2.93,7.07C370.79,120.022,373.37,121.092,376,121.092z"/>
<path d="M156,156.911c-5.523,0-10,4.477-10,10v64c0,5.523,4.477,10,10,10h56c5.523,0,10-4.477,10-10v-64c0-5.523-4.477-10-10-10H156
	z M202,220.911h-36v-44h36V220.911z"/>
<path d="M60,156.911c-5.523,0-10,4.477-10,10v64c0,5.523,4.477,10,10,10h56c5.523,0,10-4.477,10-10v-64c0-5.523-4.477-10-10-10H60z
	 M106,220.911H70v-44h36V220.911z"/>
<path d="M338,166.911v64c0,5.523,4.477,10,10,10h56c5.523,0,10-4.477,10-10v-64c0-5.523-4.477-10-10-10h-56
	C342.477,156.911,338,161.387,338,166.911z M358,176.911h36v44h-36V176.911z"/>
<path d="M318,230.911v-64c0-5.523-4.477-10-10-10h-56c-5.523,0-10,4.477-10,10v64c0,5.523,4.477,10,10,10h56
	C313.523,240.911,318,236.434,318,230.911z M298,220.911h-36v-44h36V220.911z"/>
<path d="M502,319.034V159.092c0-31.981-26.019-58-58-58h-32.333c-5.523,0-10,4.477-10,10s4.477,10,10,10H444
	c20.22,0,36.797,15.876,37.933,35.817H458.25c-13.372,0-24.25,10.878-24.25,24.25v75.5c0,13.372,10.878,24.25,24.25,24.25H482
	v28.427c-1.313-0.155-2.646-0.243-4-0.243H34c-1.354,0-2.687,0.089-4,0.243v-28.427h184c5.523,0,10-4.478,10-10
	c0-5.522-4.477-10-10-10H30V159.092c0-20.953,17.047-38,38-38h268c5.523,0,10-4.477,10-10s-4.477-10-10-10H68
	c-31.981,0-58,26.019-58,58v159.941c-6.174,6.159-10,14.67-10,24.059c0,18.748,15.252,34,34,34h80.354
	c4.608,19.366,22.042,33.816,42.797,33.816s38.189-14.451,42.797-33.816h177.029c4.608,19.366,22.042,33.816,42.797,33.816
	s38.189-14.451,42.797-33.816H478c18.748,0,34-15.252,34-34C512,333.705,508.174,325.193,502,319.034z M458.25,260.909
	c-2.343,0-4.25-1.906-4.25-4.25v-75.5c0-2.343,1.907-4.25,4.25-4.25H482v84H458.25z M376.893,357.094H200.034
	c-2.718-11.875-10.245-21.932-20.424-28h217.706C387.138,335.161,379.611,345.219,376.893,357.094z M114.269,357.094H34
	c-7.72,0-14-6.28-14-14c0-7.72,6.28-14,14-14h100.693C124.514,335.161,116.987,345.219,114.269,357.094z M157.152,390.909
	c-13.233,0-24-10.767-24-24c0-13.233,10.767-24,24-24s24,10.767,24,24C181.152,380.143,170.385,390.909,157.152,390.909z
	 M419.775,390.909c-13.233,0-24-10.767-24-24c0-13.233,10.767-24,24-24s24,10.767,24,24
	C443.775,380.143,433.009,390.909,419.775,390.909z M478,357.094h-15.342c-2.718-11.875-10.245-21.932-20.424-28H478
	c7.72,0,14,6.28,14,14C492,350.813,485.72,357.094,478,357.094z"/>
<path d="M256,260.909c-5.523,0-10,4.478-10,10c0,5.522,4.477,10,10,10h0.127c5.523,0,10-4.478,10-10c0-5.522-4.477-10-10-10H256z"/>
<g>
</g>
<g>
</g>
<g>
</g>
<g>
</g>
<g>
</g>
<g>
</g>
<g>
</g>
<g>
</g>
<g>
</g>
<g>
</g>
<g>
</g>
<g>
</g>
<g>
</g>
<g>
</g>
<g>
</g>
</svg>
