<?xml version="1.0" encoding="iso-8859-1"?>
<!-- Generator: Adobe Illustrator 19.0.0, SVG Export Plug-In . SVG Version: 6.00 Build 0)  -->
<svg version="1.1" id="Capa_1" xmlns="http://www.w3.org/2000/svg" xmlns:xlink="http://www.w3.org/1999/xlink" x="0px" y="0px"
	 viewBox="0 0 512 512" style="enable-background:new 0 0 512 512;" xml:space="preserve">
<g>
	<path style="fill:#FFC766;" d="M443.275,263.512c0.113,0.023,0.227,0.04,0.34,0.063
		C443.502,263.551,443.387,263.534,443.275,263.512z"/>
	<path style="fill:#FFC766;" d="M449.64,265.11c0.393,0.119,0.784,0.241,1.173,0.367C450.424,265.351,450.033,265.228,449.64,265.11
		z"/>
	<path style="fill:#FFC766;" d="M446.63,264.27c0.348,0.088,0.692,0.186,1.038,0.279C447.322,264.457,446.978,264.358,446.63,264.27
		z"/>
	<path style="fill:#FFC766;" d="M459.296,268.835c0.402,0.192,0.798,0.395,1.196,0.594
		C460.094,269.23,459.699,269.026,459.296,268.835z"/>
	<path style="fill:#FFC766;" d="M467.178,273.253c0.844,0.548,1.676,1.113,2.494,1.696
		C468.853,274.366,468.022,273.8,467.178,273.253z"/>
	<path style="fill:#FFC766;" d="M464.624,271.672c0.438,0.258,0.877,0.515,1.309,0.782
		C465.501,272.187,465.063,271.93,464.624,271.672z"/>
	<path style="fill:#FFC766;" d="M461.05,358.948h18.096c8.333,0,15.622,4.461,19.615,11.125v-38.796
		c0-7.512-1.214-14.736-3.43-21.508h-44.014c-16.743,0-30.317-13.573-30.317-30.317v-17.291h-59.313
		c-6.246,0-11.827-3.901-13.973-9.767l-29.536-80.727c-5.258-14.37-18.931-23.927-34.233-23.927H267H137h-17.508
		c-27.857,0-52.903,16.975-63.222,42.851l-18.473,46.32c-6.447,16.166-9.846,33.379-10.05,50.773h14.195
		c14.163,0,25.644,11.481,25.644,25.644v0.54c0,14.163-11.481,25.644-25.644,25.644H27.727v28.063c0.46-0.033,0.92-0.07,1.389-0.07
		h27.673v35.172h31.448c0.72-27.261,23.029-49.143,50.463-49.143c27.435,0,49.743,21.882,50.464,49.143h134.051
		c0.72-27.261,23.029-49.143,50.464-49.143s49.743,21.882,50.463,49.143h29.271v-36.092
		C453.412,362.367,456.832,358.948,461.05,358.948z M301.4,276.209H84.107c-9.407,0-16.052-9.214-13.082-18.14l18.627-55.978
		c4.912-14.76,18.721-24.719,34.277-24.719h143.362c9.948,0,18.777,6.372,21.911,15.813l22.719,68.446
		C314.302,268.807,308.96,276.209,301.4,276.209z"/>
	<path style="fill:#FFC766;" d="M461.994,270.198c0.434,0.23,0.864,0.466,1.293,0.706
		C462.858,270.664,462.428,270.428,461.994,270.198z"/>
	<path style="fill:#FFC766;" d="M455.845,267.315c0.32,0.131,0.642,0.257,0.96,0.393
		C456.487,267.572,456.165,267.446,455.845,267.315z"/>
	<path style="fill:#FFC766;" d="M452.643,266.095c0.381,0.135,0.763,0.266,1.141,0.407
		C453.406,266.362,453.024,266.23,452.643,266.095z"/>
	<path style="fill:#FFC766;" d="M475.193,279.315c0.482,0.423,0.963,0.849,1.433,1.286
		C476.156,280.165,475.676,279.739,475.193,279.315z"/>
	<path style="fill:#FFC766;" d="M482.368,286.609c0.475,0.56,0.939,1.129,1.396,1.704
		C483.307,287.738,482.843,287.169,482.368,286.609z"/>
	<path style="fill:#FFC766;" d="M484.152,288.806c0.47,0.603,0.934,1.21,1.384,1.829
		C485.085,290.016,484.622,289.409,484.152,288.806z"/>
	<path style="fill:#FFC766;" d="M472.979,277.448c0.476,0.384,0.945,0.775,1.41,1.171
		C473.923,278.223,473.455,277.832,472.979,277.448z"/>
	<path style="fill:#FFC766;" d="M485.651,290.796c1.515,2.094,2.917,4.275,4.194,6.536
		C488.567,295.072,487.167,292.89,485.651,290.796z"/>
	<path style="fill:#FFC766;" d="M470.647,275.642c0.48,0.355,0.949,0.723,1.419,1.089
		C471.596,276.365,471.127,275.996,470.647,275.642z"/>
	<path style="fill:#FFC766;" d="M429.646,262.161L429.646,262.161L429.646,262.161z"/>
	<path style="fill:#FFC766;" d="M432.903,262.244c0.341,0.016,0.679,0.041,1.019,0.062
		C433.582,262.285,433.244,262.259,432.903,262.244z"/>
	<path style="fill:#FFC766;" d="M436.153,262.476c0.38,0.035,0.759,0.074,1.138,0.116
		C436.912,262.55,436.533,262.511,436.153,262.476z"/>
	<path style="fill:#FFC766;" d="M481.983,286.164c-1.519-1.761-3.124-3.443-4.811-5.042
		C478.858,282.721,480.465,284.403,481.983,286.164z"/>
	<path style="fill:#FFC766;" d="M439.457,262.867c0.346,0.049,0.694,0.094,1.038,0.149
		C440.151,262.961,439.803,262.916,439.457,262.867z"/>
	<path style="fill:#FFC766;" d="M491.251,299.957c1.597,3.137,2.965,6.41,4.075,9.8
		C494.216,306.366,492.849,303.094,491.251,299.957z"/>
	<path style="fill:#FFC766;" d="M489.915,297.455c0.403,0.716,0.791,1.442,1.168,2.174
		C490.705,298.897,490.318,298.171,489.915,297.455z"/>
</g>
<path style="fill:#5DADE0;" d="M479.146,358.948H461.05c-4.218,0-7.638,3.42-7.638,7.638v36.092v7.299
	c0,4.218,3.42,7.638,7.638,7.638h18.096c12.622,0,22.854-10.232,22.854-22.854v-12.957c0-4.289-1.184-8.301-3.239-11.73
	C494.768,363.409,487.479,358.948,479.146,358.948z"/>
<g>
	<path style="fill:#BDC2C6;" d="M138.7,353.534c-27.435,0-49.743,21.882-50.463,49.143c-0.012,0.451-0.034,0.9-0.034,1.354
		c0,27.889,22.609,50.498,50.498,50.498s50.498-22.609,50.498-50.498c0-0.454-0.022-0.903-0.034-1.354
		C188.443,375.416,166.135,353.534,138.7,353.534z"/>
	<path style="fill:#BDC2C6;" d="M373.678,353.534c-27.435,0-49.743,21.882-50.464,49.143c-0.012,0.451-0.034,0.9-0.034,1.354
		c0,27.889,22.609,50.498,50.498,50.498s50.498-22.609,50.498-50.498c0-0.454-0.022-0.903-0.034-1.354
		C423.421,375.416,401.113,353.534,373.678,353.534z"/>
</g>
<path style="fill:#ECEFF0;" d="M289.202,193.186c-3.134-9.441-11.963-15.813-21.911-15.813H123.929
	c-15.556,0-29.365,9.958-34.277,24.719l-18.627,55.977c-2.97,8.926,3.674,18.14,13.082,18.14H301.4
	c7.561,0,12.903-7.402,10.521-14.578L289.202,193.186z"/>
<path style="fill:#EC6575;" d="M67.586,313.869v-0.54c0-14.163-11.481-25.644-25.644-25.644H27.747h-0.02v1.659v50.168h14.215
	C56.105,339.512,67.586,328.031,67.586,313.869z"/>
<g>
	<path style="fill:#5DADE0;" d="M29.116,367.505c-0.469,0-0.928,0.037-1.389,0.07C17.821,368.289,10,376.532,10,386.621v17.996
		c0,10.557,8.558,19.115,19.116,19.115h27.673v-21.055v-35.172H29.116z"/>
	<path style="fill:#5DADE0;" d="M260.612,118.253c-1.869-8.628-9.502-14.784-18.33-14.784h-80.565
		c-8.828,0-16.461,6.156-18.33,14.784L137,147.741h130L260.612,118.253z"/>
</g>
<path style="fill:#EC6575;" d="M451.317,309.768h44.014l0,0c-0.001-0.004-0.003-0.007-0.004-0.011c-1.11-3.39-2.478-6.664-4.075-9.8
	c-0.056-0.11-0.112-0.219-0.168-0.328c-0.377-0.732-0.766-1.457-1.168-2.174c-0.023-0.041-0.047-0.081-0.07-0.122
	c-1.277-2.261-2.678-4.443-4.194-6.536c-0.039-0.054-0.076-0.109-0.115-0.162c-0.45-0.618-0.914-1.226-1.384-1.829
	c-0.129-0.165-0.258-0.33-0.388-0.493c-0.457-0.575-0.921-1.144-1.396-1.704c-0.127-0.15-0.257-0.296-0.385-0.445
	c-1.518-1.761-3.125-3.443-4.811-5.042c-0.182-0.173-0.361-0.349-0.546-0.52c-0.47-0.437-0.951-0.862-1.433-1.286
	c-0.267-0.234-0.534-0.467-0.804-0.697c-0.465-0.396-0.935-0.787-1.41-1.171c-0.301-0.243-0.607-0.479-0.912-0.717
	c-0.47-0.367-0.939-0.735-1.419-1.089c-0.321-0.237-0.65-0.462-0.975-0.693c-0.819-0.583-1.65-1.148-2.494-1.696
	c-0.414-0.268-0.825-0.538-1.245-0.798c-0.432-0.267-0.871-0.525-1.309-0.782c-0.443-0.261-0.888-0.518-1.337-0.769
	c-0.428-0.239-0.859-0.475-1.293-0.706c-0.496-0.264-0.998-0.517-1.502-0.769c-0.398-0.199-0.794-0.402-1.196-0.594
	c-0.822-0.391-1.652-0.767-2.492-1.127c-0.318-0.136-0.64-0.262-0.96-0.393c-0.682-0.28-1.368-0.554-2.061-0.813
	c-0.378-0.141-0.76-0.272-1.141-0.407c-0.606-0.214-1.215-0.421-1.829-0.619c-0.39-0.125-0.781-0.248-1.173-0.367
	c-0.653-0.197-1.311-0.382-1.972-0.56c-0.346-0.093-0.69-0.191-1.038-0.279c-0.997-0.252-2.001-0.488-3.015-0.696
	c-0.112-0.023-0.227-0.04-0.34-0.063c-0.92-0.184-1.847-0.349-2.78-0.496c-0.344-0.054-0.692-0.099-1.038-0.149
	c-0.719-0.102-1.44-0.195-2.166-0.275c-0.378-0.042-0.758-0.081-1.138-0.116c-0.74-0.069-1.485-0.124-2.232-0.17
	c-0.339-0.021-0.678-0.046-1.019-0.062c-1.08-0.05-2.164-0.082-3.256-0.082l0,0H421v17.291
	C421,296.195,434.573,309.768,451.317,309.768z"/>
<path d="M508.761,331.276c0-8.522-1.371-16.726-3.876-24.424c-0.02-0.064-0.03-0.13-0.051-0.194
	c-0.157-0.48-0.333-0.951-0.499-1.427c-0.161-0.463-0.316-0.93-0.485-1.388c-9.113-24.703-29.634-42.813-54.425-49.178
	c-0.017-0.004-0.033-0.009-0.05-0.013c-2.475-0.634-4.991-1.156-7.544-1.55c-0.206-0.032-0.414-0.057-0.62-0.087
	c-0.986-0.144-1.977-0.271-2.974-0.379c-0.371-0.04-0.742-0.076-1.114-0.111c-0.886-0.083-1.776-0.15-2.669-0.204
	c-0.366-0.022-0.731-0.049-1.098-0.066c-1.231-0.057-2.467-0.094-3.71-0.094H421h-59.313c-2.04,0-3.882-1.287-4.582-3.203
	l-29.536-80.727c-6.673-18.237-24.204-30.491-43.624-30.491h-8.878l-4.68-21.605c-2.846-13.134-14.665-22.667-28.104-22.667h-80.564
	c-13.438,0-25.258,9.533-28.104,22.667l-4.68,21.605h-9.443c-32.142,0-60.604,19.292-72.51,49.147l-18.473,46.32
	c-6.887,17.268-10.496,35.417-10.757,53.974c-0.008,0.168-0.025,0.333-0.025,0.503v1.659v50.168v20.314
	C7.316,364.269,0,374.606,0,386.621v17.996c0,16.055,13.061,29.116,29.115,29.116h27.674c5.522,0,10-4.477,10-10v-11.055H78.83
	c4.209,29.276,29.448,51.852,59.87,51.852s55.661-22.576,59.87-51.852h115.238c4.209,29.276,29.448,51.852,59.87,51.852
	s55.661-22.576,59.87-51.852h10.093c1.307,8.444,8.604,14.936,17.409,14.936h18.096c18.116,0,32.854-14.738,32.854-32.854v-12.957
	c0-5.09-1.164-9.914-3.239-14.219L508.761,331.276L508.761,331.276z M431,272.196c0.498,0.011,0.997,0.014,1.492,0.038
	c0.086,0.004,0.172,0.005,0.257,0.01c0.903,0.047,1.799,0.118,2.691,0.205c0.159,0.015,0.318,0.032,0.477,0.048
	c1.899,0.2,3.775,0.49,5.623,0.866c0.003,0,0.006,0.001,0.009,0.002c15.987,3.281,29.628,13.045,38.079,26.404h-28.311
	c-11.202,0-20.316-9.114-20.316-20.317L431,272.196L431,272.196z M153.161,120.37c0.866-3.999,4.465-6.901,8.557-6.901h80.564
	c4.092,0,7.69,2.902,8.557,6.901l3.763,17.371H149.398L153.161,120.37z M37.727,297.685h4.216c8.626,0,15.644,7.018,15.644,15.644
	v0.54c0,8.626-7.018,15.644-15.644,15.644h-4.216V297.685z M46.789,392.677v20v1.055H29.115c-2.203,0-4.226-0.786-5.804-2.092
	c-2.021-1.673-3.311-4.2-3.311-7.023v-17.996c0-5.026,4.089-9.115,9.115-9.115h8.611h9.063
	C46.789,377.506,46.789,392.677,46.789,392.677z M178.259,412.677c-3.972,18.189-20.196,31.852-39.559,31.852
	c-19.364,0-35.587-13.663-39.56-31.852c-0.609-2.788-0.938-5.678-0.938-8.646c0-3.942,0.577-7.749,1.632-11.354
	c4.922-16.819,20.477-29.144,38.866-29.144c18.388,0,33.943,12.324,38.865,29.144c1.055,3.605,1.632,7.413,1.632,11.354
	C179.197,406.999,178.867,409.89,178.259,412.677z M413.237,412.677c-3.972,18.189-20.196,31.852-39.56,31.852
	s-35.587-13.663-39.56-31.852c-0.609-2.788-0.938-5.678-0.938-8.646c0-3.942,0.577-7.749,1.632-11.354
	c4.922-16.819,20.477-29.144,38.866-29.144s33.944,12.324,38.866,29.144c1.055,3.605,1.632,7.413,1.632,11.354
	C414.176,406.999,413.846,409.89,413.237,412.677z M443.412,366.585v26.092h-10.32c-5.331-27.948-29.937-49.144-59.414-49.144
	s-54.083,21.196-59.414,49.144h-116.15c-5.331-27.948-29.936-49.144-59.413-49.144s-54.083,21.196-59.414,49.144H66.789v-25.172
	c0-5.523-4.478-10-10-10H37.727v-7.993h4.216c19.654,0,35.644-15.99,35.644-35.644v-0.54c0-19.654-15.989-35.644-35.644-35.644
	h-3.696c1.122-12.703,4.077-25.128,8.84-37.068l18.473-46.32c8.855-22.207,30.025-36.555,53.933-36.555H137h130h16.944
	c11.059,0,21.041,6.978,24.841,17.363l29.537,80.727c3.574,9.768,12.964,16.33,23.364,16.33H411v7.291
	c0,22.231,18.086,40.317,40.316,40.317h36.311c0.738,3.724,1.133,7.57,1.133,11.507v19.11c-3.043-0.933-6.271-1.439-9.615-1.439
	H461.05C451.324,348.948,443.412,356.86,443.412,366.585z M492,394.759c0,7.088-5.767,12.854-12.854,12.854h-15.733v-14.936v-23.729
	h15.733c3.827,0,7.258,1.69,9.615,4.352c2.009,2.269,3.239,5.241,3.239,8.502V394.759z"/>
<path d="M298.693,190.036c-4.5-13.555-17.119-22.663-31.402-22.663H195h-71.07c-19.896,0-37.483,12.684-43.766,31.562
	l-18.627,55.978c-2.407,7.232-1.183,15.241,3.276,21.423c4.458,6.183,11.67,9.874,19.293,9.874H95c5.522,0,10-4.477,10-10
	s-4.478-10-10-10H84.106c-1.687,0-2.648-0.985-3.071-1.572s-1.054-1.811-0.521-3.411l18.627-55.978
	c3.559-10.692,13.521-17.876,24.789-17.876H185v78.836h-10c-5.522,0-10,4.477-10,10s4.478,10,10,10h20h106.399
	c6.754,0,13.146-3.27,17.098-8.746c3.953-5.476,5.042-12.572,2.915-18.982L298.693,190.036z M302.28,265.758
	c-0.325,0.451-0.743,0.451-0.881,0.451H205v-78.836h62.291c5.649,0,10.641,3.602,12.42,8.964l22.719,68.445
	C302.474,264.912,302.604,265.309,302.28,265.758z"/>
<path d="M298,352.802h-82c-5.522,0-10,4.477-10,10s4.478,10,10,10h82c5.522,0,10-4.477,10-10S303.522,352.802,298,352.802z"/>
<path d="M147.93,400.205c-0.25-0.6-0.56-1.18-0.92-1.72c-0.36-0.55-0.78-1.06-1.24-1.52c-0.46-0.47-0.97-0.88-1.52-1.25
	c-0.54-0.36-1.12-0.67-1.73-0.92c-0.6-0.25-1.229-0.44-1.87-0.57c-1.29-0.26-2.619-0.26-3.899,0c-0.641,0.13-1.271,0.32-1.88,0.57
	c-0.601,0.25-1.181,0.56-1.721,0.92c-0.55,0.37-1.06,0.78-1.52,1.25c-0.46,0.46-0.88,0.97-1.24,1.52c-0.37,0.54-0.67,1.12-0.92,1.72
	s-0.45,1.23-0.58,1.87c-0.13,0.65-0.189,1.3-0.189,1.96c0,0.65,0.06,1.31,0.189,1.95c0.13,0.64,0.33,1.27,0.58,1.87
	s0.55,1.19,0.92,1.73c0.36,0.55,0.78,1.06,1.24,1.52s0.97,0.88,1.52,1.24c0.179,0.119,0.368,0.224,0.555,0.332
	c0.377,0.218,0.764,0.421,1.166,0.588c0.609,0.25,1.239,0.44,1.88,0.57c0.64,0.13,1.3,0.2,1.95,0.2c0.649,0,1.31-0.07,1.949-0.2
	c0.641-0.13,1.271-0.32,1.87-0.57c0.408-0.167,0.797-0.37,1.175-0.588c0.187-0.108,0.377-0.213,0.556-0.332
	c0.55-0.36,1.06-0.78,1.52-1.24s0.88-0.97,1.24-1.52c0.36-0.54,0.67-1.13,0.92-1.73s0.45-1.23,0.57-1.87c0.13-0.64,0.2-1.3,0.2-1.95
	c0-0.66-0.07-1.31-0.2-1.96C148.38,401.435,148.18,400.805,147.93,400.205z"/>
<path d="M118.516,67.69c-4.483-3.231-10.731-2.215-13.96,2.264c-3.23,4.48-2.217,10.73,2.263,13.96l14.333,10.333
	c1.77,1.275,3.814,1.889,5.84,1.889c3.105,0,6.166-1.442,8.12-4.153c3.23-4.48,2.217-10.73-2.263-13.96L118.516,67.69z"/>
<path d="M286.5,67.69l-14.333,10.333c-4.479,3.23-5.493,9.48-2.263,13.96c1.954,2.711,5.015,4.153,8.12,4.153
	c2.025,0,4.07-0.614,5.84-1.889l14.333-10.333c4.479-3.23,5.493-9.48,2.263-13.96C297.232,65.475,290.982,64.46,286.5,67.69z"/>
<path d="M192,57.469v14.333c0,5.523,4.478,10,10,10s10-4.477,10-10V57.469c0-5.523-4.478-10-10-10S192,51.946,192,57.469z"/>
<path d="M382.91,400.205c-0.25-0.6-0.561-1.18-0.92-1.72c-0.36-0.55-0.78-1.06-1.24-1.53c-2.32-2.32-5.78-3.38-9.03-2.73
	c-0.63,0.13-1.26,0.32-1.87,0.57c-0.6,0.25-1.18,0.56-1.72,0.92c-0.55,0.37-1.061,0.78-1.521,1.24c-0.46,0.47-0.88,0.98-1.25,1.53
	c-0.359,0.54-0.67,1.12-0.92,1.72c-0.25,0.61-0.439,1.24-0.569,1.87c-0.13,0.65-0.19,1.31-0.19,1.96s0.061,1.31,0.19,1.95
	c0.13,0.64,0.319,1.27,0.569,1.87c0.25,0.61,0.561,1.19,0.92,1.73c0.37,0.55,0.79,1.06,1.25,1.52s0.971,0.88,1.521,1.24
	c0.179,0.119,0.368,0.224,0.555,0.332c0.377,0.218,0.764,0.421,1.165,0.588c0.61,0.25,1.24,0.44,1.87,0.57
	c0.65,0.13,1.311,0.2,1.96,0.2c1.756,0,3.485-0.487,4.998-1.358c0.752-0.433,1.455-0.955,2.073-1.572c0.46-0.46,0.88-0.97,1.24-1.52
	c0.359-0.54,0.67-1.12,0.92-1.73c0.25-0.6,0.439-1.23,0.569-1.87c0.13-0.64,0.2-1.3,0.2-1.95s-0.07-1.31-0.2-1.96
	C383.35,401.445,383.16,400.815,382.91,400.205z"/>
<path d="M144.229,272.385c-0.25-0.6-0.56-1.19-0.92-1.73c-0.359-0.54-0.779-1.06-1.24-1.52c-0.46-0.46-0.97-0.88-1.52-1.24
	c-0.54-0.36-1.12-0.67-1.73-0.92c-0.6-0.25-1.229-0.44-1.869-0.57c-1.29-0.26-2.61-0.26-3.9,0c-0.64,0.13-1.27,0.32-1.88,0.57
	c-0.601,0.25-1.18,0.56-1.72,0.92c-0.551,0.36-1.061,0.78-1.521,1.24s-0.88,0.98-1.25,1.52c-0.36,0.54-0.66,1.13-0.91,1.73
	s-0.45,1.23-0.58,1.87c-0.13,0.65-0.189,1.3-0.189,1.95c0,2.64,1.069,5.21,2.93,7.07c0.46,0.47,0.97,0.88,1.521,1.25
	c0.54,0.36,1.119,0.67,1.72,0.92c0.61,0.25,1.24,0.44,1.88,0.57s1.3,0.19,1.95,0.19c0.649,0,1.31-0.06,1.95-0.19
	s1.27-0.32,1.869-0.57c0.61-0.25,1.19-0.56,1.73-0.92c0.55-0.37,1.06-0.78,1.52-1.25c1.86-1.86,2.931-4.43,2.931-7.07
	c0-0.65-0.07-1.3-0.2-1.95C144.68,273.615,144.479,272.985,144.229,272.385z"/>
<g>
</g>
<g>
</g>
<g>
</g>
<g>
</g>
<g>
</g>
<g>
</g>
<g>
</g>
<g>
</g>
<g>
</g>
<g>
</g>
<g>
</g>
<g>
</g>
<g>
</g>
<g>
</g>
<g>
</g>
</svg>
