<?xml version="1.0" encoding="iso-8859-1"?>
<!-- Generator: Adobe Illustrator 19.0.0, SVG Export Plug-In . SVG Version: 6.00 Build 0)  -->
<svg version="1.1" id="Capa_1" xmlns="http://www.w3.org/2000/svg" xmlns:xlink="http://www.w3.org/1999/xlink" x="0px" y="0px"
	 viewBox="0 0 512 512" style="enable-background:new 0 0 512 512;" xml:space="preserve">
<path style="fill:#2196F3;" d="M487.424,224.832L366.048,103.424C351.086,88.376,330.724,79.941,309.504,80H16
	C7.163,80,0,87.164,0,96v256c0,8.837,7.163,16,16,16h412.16c46.321-0.029,83.848-37.604,83.819-83.925
	C511.965,261.854,503.134,240.547,487.424,224.832z"/>
<g>
	<path style="fill:#ECEFF1;" d="M176,144h64c8.837,0,16,7.163,16,16v64c0,8.837-7.163,16-16,16h-64c-8.837,0-16-7.163-16-16v-64
		C160,151.164,167.163,144,176,144z"/>
	<path style="fill:#ECEFF1;" d="M498.784,239.168c-3.252-5.179-7.061-9.986-11.36-14.336L406.624,144H304c-8.837,0-16,7.163-16,16
		v64c0,8.837,7.163,16,16,16h192C497.024,240,497.824,239.328,498.784,239.168z"/>
	<path style="fill:#ECEFF1;" d="M48,144h64c8.837,0,16,7.163,16,16v64c0,8.837-7.163,16-16,16H48c-8.837,0-16-7.163-16-16v-64
		C32,151.164,39.163,144,48,144z"/>
</g>
<path d="M428.16,368H16c-8.837,0-16-7.163-16-16V96c0-8.837,7.163-16,16-16h293.504c21.22-0.059,41.582,8.376,56.544,23.424
	l121.376,121.408c32.748,32.76,32.739,85.865-0.021,118.613C471.688,359.155,450.381,367.986,428.16,368z M32,336h396.16
	c28.648-0.025,51.851-23.27,51.826-51.918c-0.012-13.738-5.474-26.91-15.186-36.626L343.424,126.048
	c-9.02-8.96-21.206-14.007-33.92-14.048H32V336z"/>
<path d="M240,240h-64c-8.837,0-16-7.163-16-16v-64c0-8.837,7.163-16,16-16h64c8.837,0,16,7.163,16,16v64
	C256,232.837,248.837,240,240,240z M192,208h32v-32h-32V208z"/>
<path d="M464,240H304c-8.837,0-16-7.163-16-16v-64c0-8.837,7.163-16,16-16h96c8.837,0,16,7.163,16,16s-7.163,16-16,16h-80v32h144
	c8.837,0,16,7.163,16,16S472.837,240,464,240z"/>
<path d="M112,240H16c-8.837,0-16-7.163-16-16s7.163-16,16-16h80v-32H16c-8.837,0-16-7.163-16-16s7.163-16,16-16h96
	c8.837,0,16,7.163,16,16v64C128,232.837,120.837,240,112,240z"/>
<path d="M496,432H16c-8.837,0-16-7.163-16-16s7.163-16,16-16h480c8.837,0,16,7.163,16,16S504.837,432,496,432z"/>
<g>
</g>
<g>
</g>
<g>
</g>
<g>
</g>
<g>
</g>
<g>
</g>
<g>
</g>
<g>
</g>
<g>
</g>
<g>
</g>
<g>
</g>
<g>
</g>
<g>
</g>
<g>
</g>
<g>
</g>
</svg>
